<?xml version="1.0" encoding="UTF-8"?>
<svg id="Layer_1" data-name="Layer 1" xmlns="http://www.w3.org/2000/svg" viewBox="0 0 214.46 214.54">
  <defs>
    <style>
      .cls-1 {
        stroke-width: 0px;
      }
    </style>
  </defs>
  <path class="cls-1" d="m125.48,45.79c-.96-.54-1.74-.08-1.74,1.02v57.39c0,1.1.7,1.44,1.56.75l42.04-33.51c.86-.69.78-1.69-.18-2.23l-41.68-23.42Z"/>
  <path class="cls-1" d="m89.48,168.85c.96.54,1.74.08,1.74-1.02v-57.39c0-1.1-.7-1.44-1.56-.75l-42.04,33.51c-.86.69-.78,1.69.18,2.23l41.68,23.42Z"/>
  <path class="cls-1" d="m109.21,12.72c-.95-.55-2.51-.55-3.46,0L26.42,58.52c-.95.55-1.73,1.9-1.73,3v91.6c0,1.1.78,2.45,1.73,3l79.33,45.8c.95.55,2.51.55,3.46,0l79.33-45.8c.95-.55,1.73-1.9,1.73-3V61.52c0-1.1-.78-2.45-1.73-3L109.21,12.72Zm-8.99,170.49c0,1.1-.78,1.56-1.74,1.02l-66.75-37.51c-.96-.54-1.04-1.54-.18-2.23l49.99-39.84c.86-.69.8-1.72-.13-2.31l-40.51-25.4c-.93-.58-1.22-1.82-.63-2.76l2.66-4.24c.58-.93,1.83-1.22,2.76-.63l43.85,27.49c.93.58,1.69.16,1.69-.94V31.43c0-1.1.9-2,2-2h5c1.1,0,2,.9,2,2v151.78Zm73.83-45.51c.93.58,1.22,1.82.63,2.76l-2.66,4.24c-.58.93-1.83,1.22-2.76.63l-43.85-27.49c-.93-.58-1.69-.16-1.69.94v64.44c0,1.1-.9,2-2,2h-5c-1.1,0-2-.9-2-2V31.43c0-1.1.78-1.56,1.74-1.02l66.75,37.51c.96.54,1.04,1.54.18,2.23l-49.99,39.84c-.86.69-.8,1.72.13,2.31l40.51,25.4Z"/>
</svg>